<?xml version="1.0" encoding="UTF-8"?>
<svg version="1.1" xmlns="http://www.w3.org/2000/svg" width="512" height="512">
<path d="M0 0 C1.11109131 0.24943359 1.11109131 0.24943359 2.24462891 0.50390625 C14.13257954 3.25964497 25.05217808 7.65724201 36 13 C37.01707031 13.49371094 38.03414062 13.98742187 39.08203125 14.49609375 C50.42262193 20.35733608 60.75277179 28.24204313 70 37 C68.70722863 39.84731326 67.35425174 41.88961912 65.13012695 44.08105469 C64.5522493 44.65555359 63.97437164 45.23005249 63.37898254 45.82196045 C62.75505112 46.43243225 62.13111969 47.04290405 61.48828125 47.671875 C60.84183151 48.31312317 60.19538177 48.95437134 59.52934265 49.61505127 C57.46175974 51.66484762 55.38763776 53.70785445 53.3125 55.75 C51.25603754 57.77866262 49.20111681 59.8088256 47.1492157 61.84210205 C45.87423441 63.10502666 44.59659246 64.3652734 43.31575012 65.62225342 C38.18881561 70.69278396 33.49168139 76.08117323 28.8125 81.5625 C27 83 27 83 25.18359375 82.8125 C22.42272738 81.78520089 20.55852116 80.26926135 18.25 78.4375 C-0.97654306 64.17760055 -23.71944918 58.55858849 -47.47705078 61.28417969 C-70.77020797 64.91112506 -92.34529155 77.16336332 -106.75 95.9375 C-108.18636879 97.9443773 -109.60446856 99.96451387 -111 102 C-111.55558594 102.80050781 -112.11117187 103.60101563 -112.68359375 104.42578125 C-125.64518529 124.45733181 -129.20612577 150.05687634 -124.91943359 173.28344727 C-119.69249865 197.32364098 -105.38268906 219.06676373 -84.79296875 232.6796875 C-62.62192763 246.59388709 -37.13568503 251.03194902 -11.375 245.4375 C1.1290446 242.37207458 12.96716398 237.11856407 23 229 C23.82886719 228.35675781 24.65773438 227.71351563 25.51171875 227.05078125 C36.43838831 217.99821121 42.58874061 206.32235768 47 193 C47.99 190.03 47.99 190.03 49 187 C21.28 187 -6.44 187 -35 187 C-35 166.87 -35 146.74 -35 126 C13.84 126 62.68 126 113 126 C123.14793759 161.51778155 114.66012861 206.36510393 97.24072266 238.48608398 C91.12342049 249.3283066 83.60046367 259.01627146 75 268 C74.32839844 268.73476563 73.65679687 269.46953125 72.96484375 270.2265625 C52.49907394 291.87819934 24.66502169 303.23363654 -4 309 C-5.19109375 309.2475 -6.3821875 309.495 -7.609375 309.75 C-27.48458951 313.10919119 -49.33422358 312.31729602 -69 308 C-69.74040527 307.83902832 -70.48081055 307.67805664 -71.24365234 307.51220703 C-95.46925918 302.00710842 -118.43186273 290.51492978 -137 274 C-137.825 273.29488281 -138.65 272.58976562 -139.5 271.86328125 C-170.23772145 245.11185805 -188.92667634 206.56343433 -192 166 C-193.34469936 137.25089774 -188.69531692 109.93172354 -176 84 C-175.70399902 83.37963867 -175.40799805 82.75927734 -175.10302734 82.12011719 C-162.61174476 56.16578287 -142.00234954 35.46214348 -118 20 C-117.41734375 19.62456055 -116.8346875 19.24912109 -116.234375 18.86230469 C-100.25654241 8.75483232 -82.42375785 2.790146 -64 -1 C-62.25009766 -1.36931641 -62.25009766 -1.36931641 -60.46484375 -1.74609375 C-40.91757334 -5.06112791 -19.31625725 -4.44716007 0 0 Z " fill="#34A253" transform="translate(294,102)"/>
<path d="M0 0 C1.11109131 0.24943359 1.11109131 0.24943359 2.24462891 0.50390625 C14.13257954 3.25964497 25.05217808 7.65724201 36 13 C37.01707031 13.49371094 38.03414062 13.98742187 39.08203125 14.49609375 C50.42262193 20.35733608 60.75277179 28.24204313 70 37 C68.70722863 39.84731326 67.35425174 41.88961912 65.13012695 44.08105469 C64.5522493 44.65555359 63.97437164 45.23005249 63.37898254 45.82196045 C62.75505112 46.43243225 62.13111969 47.04290405 61.48828125 47.671875 C60.84183151 48.31312317 60.19538177 48.95437134 59.52934265 49.61505127 C57.46175974 51.66484762 55.38763776 53.70785445 53.3125 55.75 C51.25603754 57.77866262 49.20111681 59.8088256 47.1492157 61.84210205 C45.87423441 63.10502666 44.59659246 64.3652734 43.31575012 65.62225342 C38.18881561 70.69278396 33.49168139 76.08117323 28.8125 81.5625 C27 83 27 83 25.18359375 82.8125 C22.42272738 81.78520089 20.55852116 80.26926135 18.25 78.4375 C-0.97654306 64.17760055 -23.71944918 58.55858849 -47.47705078 61.28417969 C-70.77020797 64.91112506 -92.34529155 77.16336332 -106.75 95.9375 C-108.18636879 97.9443773 -109.60446856 99.96451387 -111 102 C-111.55558594 102.80050781 -112.11117187 103.60101563 -112.68359375 104.42578125 C-124.9448028 123.37492251 -129.38118737 148.36394619 -125.28515625 170.48046875 C-124.7629645 172.76415525 -124.19654412 175.03887745 -123.55859375 177.29296875 C-122.93777827 180.30153607 -123.02839516 182.09499966 -124 185 C-125.79353817 187.11773457 -127.70864215 188.36331582 -130 190 C-130.66 190 -131.32 190 -132 190 C-132 190.66 -132 191.32 -132 192 C-133.51171875 193.375 -133.51171875 193.375 -135.6875 195 C-136.92693359 195.93585938 -136.92693359 195.93585938 -138.19140625 196.890625 C-139.11824219 197.58671875 -140.04507813 198.2828125 -141 199 C-142.50828553 200.16847416 -144.01651684 201.33702021 -145.52319336 202.50756836 C-151.61788437 207.23487861 -157.80369632 211.82581294 -164.06298828 216.33300781 C-167.46748664 218.78220178 -167.46748664 218.78220178 -170.55810547 221.60375977 C-172.29526753 223.28591856 -173.64923378 223.59469548 -176 224 C-194.76339943 184.75229764 -197.26401275 141.15259221 -183 100 C-180.96391022 94.52126372 -178.56860217 89.24668126 -176 84 C-175.70399902 83.37963867 -175.40799805 82.75927734 -175.10302734 82.12011719 C-162.61174476 56.16578287 -142.00234954 35.46214348 -118 20 C-117.41734375 19.62456055 -116.8346875 19.24912109 -116.234375 18.86230469 C-100.25654241 8.75483232 -82.42375785 2.790146 -64 -1 C-62.25009766 -1.36931641 -62.25009766 -1.36931641 -60.46484375 -1.74609375 C-40.91757334 -5.06112791 -19.31625725 -4.44716007 0 0 Z " fill="#E44335" transform="translate(294,102)"/>
<path d="M0 0 C48.84 0 97.68 0 148 0 C158.14793759 35.51778155 149.66012861 80.36510393 132.24072266 112.48608398 C124.65347032 125.93362615 115.03425438 138.27017731 103 148 C102.505 147.278125 102.01 146.55625 101.5 145.8125 C98.82701841 142.80539571 96.27469498 141.16199831 92.8046875 139.2109375 C91 138 91 138 89 135 C87.21731154 133.96052528 87.21731154 133.96052528 85.1875 133.125 C81.3435268 131.31363133 78.97577718 129.05207916 76 126 C74.83223419 125.29934052 73.64305754 124.63342854 72.4375 124 C69 122 69 122 67.17578125 119.67578125 C64.7051598 116.63740478 61.90310435 114.45426521 58.75 112.1875 C58.19570313 111.78080078 57.64140625 111.37410156 57.0703125 110.95507812 C55.71789547 109.96408289 54.35955093 108.98118534 53 108 C56.11642505 104.81174245 59.31413846 101.89764718 62.75 99.0625 C72.44636097 90.34878068 77.94322031 79.25180052 82 67 C82.66 65.02 83.32 63.04 84 61 C56.28 61 28.56 61 0 61 C0 40.87 0 20.74 0 0 Z " fill="#4280ED" transform="translate(259,228)"/>
<path d="M0 0 C3.93253248 1.35965219 6.60145903 3.11016946 9.75 5.8125 C14.50877446 9.80269716 19.3663545 13.61978831 24.3125 17.375 C29.79871043 21.54848012 35.2666944 25.74179232 40.6875 30 C41.23897705 30.43231934 41.7904541 30.86463867 42.35864258 31.31005859 C43.91149354 32.53279466 45.45586577 33.76627431 47 35 C47.56928223 35.43296387 48.13856445 35.86592773 48.72509766 36.31201172 C50.2077289 37.47114401 51.61123518 38.72991523 53 40 C53 42.7340183 52.70852977 44.42388982 52 47 C50.30882635 54.64454601 49.64767519 61.99103329 49.6875 69.8125 C49.68834595 71.38028198 49.68834595 71.38028198 49.68920898 72.97973633 C49.77332999 80.0805387 50.50254998 86.44234325 52.44140625 93.29296875 C53.06222173 96.30153607 52.97160484 98.09499966 52 101 C50.20646183 103.11773457 48.29135785 104.36331582 46 106 C45.34 106 44.68 106 44 106 C44 106.66 44 107.32 44 108 C42.48828125 109.375 42.48828125 109.375 40.3125 111 C39.48621094 111.62390625 38.65992188 112.2478125 37.80859375 112.890625 C36.88175781 113.58671875 35.95492187 114.2828125 35 115 C33.49171447 116.16847416 31.98348316 117.33702021 30.47680664 118.50756836 C24.38211563 123.23487861 18.19630368 127.82581294 11.93701172 132.33300781 C8.53251336 134.78220178 8.53251336 134.78220178 5.44189453 137.60375977 C3.70473247 139.28591856 2.35076622 139.59469548 0 140 C-18.704694 100.87509272 -21.42254106 57.02268117 -7 16 C-4.89295039 10.5616212 -2.51489998 5.26045647 0 0 Z " fill="#F4B705" transform="translate(118,186)"/>
<path d="M0 0 C4.23333106 1.42903735 7.14798867 3.51611847 10.5625 6.375 C11.49191406 7.14585937 12.42132813 7.91671875 13.37890625 8.7109375 C15.68781118 10.7273582 17.86623643 12.80096837 20 15 C17.5625 14.625 17.5625 14.625 15 14 C14.67 13.34 14.34 12.68 14 12 C13.01 11.67 12.02 11.34 11 11 C10.29875 10.13375 9.5975 9.2675 8.875 8.375 C6.32192454 5.78121184 6.32192454 5.78121184 3.67578125 5.89453125 C1.41599522 6.16059711 -0.77837118 6.51114486 -3 7 C-2.01 4.69 -1.02 2.38 0 0 Z " fill="#F8AB1A" transform="translate(118,186)"/>
<path d="M0 0 C0.66 0.33 1.32 0.66 2 1 C-2.43076923 6.78461538 -2.43076923 6.78461538 -5.3125 7.875 C-6.1478125 7.936875 -6.1478125 7.936875 -7 8 C-7 8.99 -7 9.98 -7 11 C-8.32 10.34 -9.64 9.68 -11 9 C-7.37 6.03 -3.74 3.06 0 0 Z " fill="#4DA03D" transform="translate(146,305)"/>
<path d="M0 0 C4.25491665 0.47276852 6.22542845 2.92547477 9 6 C9.33 6.66 9.66 7.32 10 8 C5.80837855 7.04735876 4.2792209 6.36739592 1.625 2.875 C1.08875 1.92625 0.5525 0.9775 0 0 Z " fill="#3C8EAB" transform="translate(324,344)"/>
</svg>
